<?xml version="1.0" encoding="UTF-8"?>
<!DOCTYPE svg PUBLIC "-//W3C//DTD SVG 1.1//EN" "http://www.w3.org/Graphics/SVG/1.1/DTD/svg11.dtd">
<svg xmlns="http://www.w3.org/2000/svg" version="1.1" width="100px" height="101px" style="shape-rendering:geometricPrecision; text-rendering:geometricPrecision; image-rendering:optimizeQuality; fill-rule:evenodd; clip-rule:evenodd" xmlns:xlink="http://www.w3.org/1999/xlink">
<g><path style="opacity:0.985" fill="#005700" d="M 99.5,45.5 C 99.5,48.5 99.5,51.5 99.5,54.5C 92.587,67.4828 85.2537,80.3162 77.5,93C 75.8333,94 74.1667,95 72.5,96C 57.5,96.6667 42.5,96.6667 27.5,96C 25.2746,95.4389 23.2746,94.4389 21.5,93C 14.0141,80.5191 6.68077,68.0191 -0.5,55.5C -0.5,52.1667 -0.5,48.8333 -0.5,45.5C 5.95807,33.9274 12.4581,22.2608 19,10.5C 21.2643,7.56655 24.0976,5.39988 27.5,4C 42.1667,3.33333 56.8333,3.33333 71.5,4C 74.9024,5.39988 77.7357,7.56655 80,10.5C 86.5419,22.2608 93.0419,33.9274 99.5,45.5 Z"/></g>
</svg>
