<?xml version="1.0" encoding="UTF-8"?>
<!DOCTYPE svg PUBLIC "-//W3C//DTD SVG 1.1//EN" "http://www.w3.org/Graphics/SVG/1.1/DTD/svg11.dtd">
<svg xmlns="http://www.w3.org/2000/svg" version="1.1" width="100px" height="101px" style="shape-rendering:geometricPrecision; text-rendering:geometricPrecision; image-rendering:optimizeQuality; fill-rule:evenodd; clip-rule:evenodd" xmlns:xlink="http://www.w3.org/1999/xlink">
<g><path style="opacity:0.971" fill="#009800" d="M 36.5,20.5 C 46.2471,20.0796 55.9138,20.5796 65.5,22C 71.2108,29.2473 76.0441,37.0807 80,45.5C 80.6667,48.5 80.6667,51.5 80,54.5C 76.3333,61.1667 72.6667,67.8333 69,74.5C 67.4571,76.3783 65.6238,77.8783 63.5,79C 53.4002,79.9487 43.4002,79.6154 33.5,78C 27.7892,70.7527 22.9559,62.9193 19,54.5C 17.993,49.8887 18.6597,45.5554 21,41.5C 24.4005,36.4227 27.4005,31.0893 30,25.5C 31.8049,23.1743 33.9716,21.5077 36.5,20.5 Z"/></g>
</svg>
