<svg width="20" height="19" viewBox="0 0 20 19" fill="none" xmlns="http://www.w3.org/2000/svg">
<path d="M19.2394 8.53813C19.9636 8.53813 20.266 7.60767 19.6777 7.17876L10.7269 0.667822C10.5991 0.57417 10.4447 0.523682 10.2863 0.523682C10.1278 0.523682 9.97348 0.57417 9.84565 0.667822L0.894872 7.17876C0.306591 7.60532 0.608934 8.53813 1.3355 8.53813H2.78628V17.3038H1.09878C0.995653 17.3038 0.911278 17.3881 0.911278 17.4913V18.71C0.911278 18.8131 0.995653 18.8975 1.09878 18.8975H19.4738C19.5769 18.8975 19.6613 18.8131 19.6613 18.71V17.4913C19.6613 17.3881 19.5769 17.3038 19.4738 17.3038H17.7863V8.53813H19.2394ZM10.2863 2.32017L16.6402 6.94204H3.93237L10.2863 2.32017ZM4.47378 8.53813H7.21597V17.3038H4.47378V8.53813ZM8.90347 8.53813H11.6457V17.3038H8.90347V8.53813ZM16.0988 17.3038H13.3332V8.53813H16.0988V17.3038Z" fill="#F2F3F2"/>
</svg>
