<svg width="22" height="22" viewBox="0 0 22 22" fill="none" xmlns="http://www.w3.org/2000/svg">
<path d="M5.28613 4.71069V4.21069C5.00999 4.21069 4.78613 4.43455 4.78613 4.71069H5.28613ZM9.28613 4.71069H9.78613C9.78613 4.43455 9.56227 4.21069 9.28613 4.21069V4.71069ZM9.28613 8.71069V9.21069C9.56227 9.21069 9.78613 8.98684 9.78613 8.71069H9.28613ZM5.28613 8.71069H4.78613C4.78613 8.98684 5.00999 9.21069 5.28613 9.21069V8.71069ZM13.2861 4.21069C13.01 4.21069 12.7861 4.43455 12.7861 4.71069C12.7861 4.98684 13.01 5.21069 13.2861 5.21069V4.21069ZM17.2861 5.21069C17.5623 5.21069 17.7861 4.98684 17.7861 4.71069C17.7861 4.43455 17.5623 4.21069 17.2861 4.21069V5.21069ZM13.2861 8.21069C13.01 8.21069 12.7861 8.43455 12.7861 8.71069C12.7861 8.98684 13.01 9.21069 13.2861 9.21069V8.21069ZM17.2861 9.21069C17.5623 9.21069 17.7861 8.98684 17.7861 8.71069C17.7861 8.43455 17.5623 8.21069 17.2861 8.21069V9.21069ZM5.28613 12.2107C5.00999 12.2107 4.78613 12.4346 4.78613 12.7107C4.78613 12.9868 5.00999 13.2107 5.28613 13.2107V12.2107ZM17.2861 13.2107C17.5623 13.2107 17.7861 12.9868 17.7861 12.7107C17.7861 12.4346 17.5623 12.2107 17.2861 12.2107V13.2107ZM5.28613 16.2107C5.00999 16.2107 4.78613 16.4346 4.78613 16.7107C4.78613 16.9868 5.00999 17.2107 5.28613 17.2107V16.2107ZM17.2861 17.2107C17.5623 17.2107 17.7861 16.9868 17.7861 16.7107C17.7861 16.4346 17.5623 16.2107 17.2861 16.2107V17.2107ZM2.78613 1.21069H19.7861V0.210693H2.78613V1.21069ZM19.7861 1.21069C20.3384 1.21069 20.7861 1.65841 20.7861 2.21069H21.7861C21.7861 1.10612 20.8907 0.210693 19.7861 0.210693V1.21069ZM20.7861 2.21069V19.2107H21.7861V2.21069H20.7861ZM20.7861 19.2107C20.7861 19.763 20.3384 20.2107 19.7861 20.2107V21.2107C20.8907 21.2107 21.7861 20.3153 21.7861 19.2107H20.7861ZM19.7861 20.2107H2.78613V21.2107H19.7861V20.2107ZM2.78613 20.2107C2.23385 20.2107 1.78613 19.763 1.78613 19.2107H0.786133C0.786133 20.3153 1.68156 21.2107 2.78613 21.2107V20.2107ZM1.78613 19.2107V2.21069H0.786133V19.2107H1.78613ZM1.78613 2.21069C1.78613 1.65841 2.23385 1.21069 2.78613 1.21069V0.210693C1.68156 0.210693 0.786133 1.10612 0.786133 2.21069H1.78613ZM5.28613 5.21069H9.28613V4.21069H5.28613V5.21069ZM8.78613 4.71069V8.71069H9.78613V4.71069H8.78613ZM9.28613 8.21069H5.28613V9.21069H9.28613V8.21069ZM5.78613 8.71069V4.71069H4.78613V8.71069H5.78613ZM13.2861 5.21069H17.2861V4.21069H13.2861V5.21069ZM13.2861 9.21069H17.2861V8.21069H13.2861V9.21069ZM5.28613 13.2107H17.2861V12.2107H5.28613V13.2107ZM5.28613 17.2107H17.2861V16.2107H5.28613V17.2107Z" fill="#F2F3F2" fill-opacity="0.85"/>
</svg>
