<svg width="25" height="25" viewBox="0 0 25 25" fill="none" xmlns="http://www.w3.org/2000/svg">
<path d="M20.2861 2.71069H10.2861C9.49048 2.71069 8.72742 3.02676 8.16481 3.58937C7.6022 4.15198 7.28613 4.91504 7.28613 5.71069V12.7107C7.28613 13.5063 7.6022 14.2694 8.16481 14.832C8.72742 15.3946 9.49048 15.7107 10.2861 15.7107H20.2861C21.0818 15.7107 21.8448 15.3946 22.4075 14.832C22.9701 14.2694 23.2861 13.5063 23.2861 12.7107V5.71069C23.2861 4.91504 22.9701 4.15198 22.4075 3.58937C21.8448 3.02676 21.0818 2.71069 20.2861 2.71069ZM21.2861 12.7107C21.2861 12.9759 21.1808 13.2303 20.9932 13.4178C20.8057 13.6053 20.5513 13.7107 20.2861 13.7107H10.2861C10.0209 13.7107 9.76656 13.6053 9.57903 13.4178C9.39149 13.2303 9.28613 12.9759 9.28613 12.7107V5.71069C9.28613 5.44548 9.39149 5.19112 9.57903 5.00359C9.76656 4.81605 10.0209 4.71069 10.2861 4.71069H20.2861C20.5513 4.71069 20.8057 4.81605 20.9932 5.00359C21.1808 5.19112 21.2861 5.44548 21.2861 5.71069V12.7107ZM17.7861 8.71069C17.4159 8.71195 17.0594 8.85098 16.7861 9.10069C16.5711 8.90524 16.3039 8.77646 16.0171 8.72999C15.7302 8.68353 15.4361 8.72138 15.1703 8.83895C14.9046 8.95652 14.6787 9.14874 14.5202 9.39226C14.3616 9.63578 14.2772 9.92011 14.2772 10.2107C14.2772 10.5013 14.3616 10.7856 14.5202 11.0291C14.6787 11.2726 14.9046 11.4649 15.1703 11.5824C15.4361 11.7 15.7302 11.7379 16.0171 11.6914C16.3039 11.6449 16.5711 11.5161 16.7861 11.3207C16.9667 11.4848 17.1846 11.6024 17.4209 11.6633C17.6572 11.7241 17.9048 11.7264 18.1422 11.6699C18.3796 11.6134 18.5997 11.4999 18.7833 11.3391C18.9668 11.1783 19.1084 10.9752 19.1957 10.7473C19.283 10.5195 19.3134 10.2737 19.2843 10.0315C19.2551 9.78918 19.1673 9.55767 19.0284 9.35701C18.8895 9.15636 18.7038 8.99262 18.4873 8.87999C18.2708 8.76736 18.0302 8.70925 17.7861 8.71069ZM16.2861 17.7107C16.0209 17.7107 15.7666 17.816 15.579 18.0036C15.3915 18.1911 15.2861 18.4455 15.2861 18.7107V19.7107C15.2861 19.9759 15.1808 20.2303 14.9932 20.4178C14.8057 20.6053 14.5513 20.7107 14.2861 20.7107H4.28613C4.02092 20.7107 3.76656 20.6053 3.57903 20.4178C3.39149 20.2303 3.28613 19.9759 3.28613 19.7107V15.7107H4.28613C4.55135 15.7107 4.8057 15.6053 4.99324 15.4178C5.18078 15.2303 5.28613 14.9759 5.28613 14.7107C5.28613 14.4455 5.18078 14.1911 4.99324 14.0036C4.8057 13.8161 4.55135 13.7107 4.28613 13.7107H3.28613V12.7107C3.28613 12.4455 3.39149 12.1911 3.57903 12.0036C3.76656 11.8161 4.02092 11.7107 4.28613 11.7107C4.55135 11.7107 4.8057 11.6053 4.99324 11.4178C5.18078 11.2303 5.28613 10.9759 5.28613 10.7107C5.28613 10.4455 5.18078 10.1911 4.99324 10.0036C4.8057 9.81605 4.55135 9.71069 4.28613 9.71069C3.49048 9.71069 2.72742 10.0268 2.16481 10.5894C1.6022 11.152 1.28613 11.915 1.28613 12.7107V19.7107C1.28613 20.5063 1.6022 21.2694 2.16481 21.832C2.72742 22.3946 3.49048 22.7107 4.28613 22.7107H14.2861C15.0818 22.7107 15.8448 22.3946 16.4075 21.832C16.9701 21.2694 17.2861 20.5063 17.2861 19.7107V18.7107C17.2861 18.4455 17.1808 18.1911 16.9932 18.0036C16.8057 17.816 16.5513 17.7107 16.2861 17.7107ZM6.28613 18.7107H7.28613C7.55135 18.7107 7.8057 18.6053 7.99324 18.4178C8.18078 18.2303 8.28613 17.9759 8.28613 17.7107C8.28613 17.4455 8.18078 17.1911 7.99324 17.0036C7.8057 16.816 7.55135 16.7107 7.28613 16.7107H6.28613C6.02092 16.7107 5.76656 16.816 5.57903 17.0036C5.39149 17.1911 5.28613 17.4455 5.28613 17.7107C5.28613 17.9759 5.39149 18.2303 5.57903 18.4178C5.76656 18.6053 6.02092 18.7107 6.28613 18.7107Z" fill="#F2F3F2"/>
</svg>
