<svg width="17" height="21" viewBox="0 0 17 21" fill="none" xmlns="http://www.w3.org/2000/svg">
<path d="M7.28516 11.7106H9.28516C9.55037 11.7106 9.80473 11.6053 9.99226 11.4178C10.1798 11.2302 10.2852 10.9759 10.2852 10.7106C10.2852 10.4454 10.1798 10.1911 9.99226 10.0035C9.80473 9.816 9.55037 9.71065 9.28516 9.71065H7.28516C7.01994 9.71065 6.76559 9.816 6.57805 10.0035C6.39051 10.1911 6.28516 10.4454 6.28516 10.7106C6.28516 10.9759 6.39051 11.2302 6.57805 11.4178C6.76559 11.6053 7.01994 11.7106 7.28516 11.7106ZM15.2852 18.7106H14.2852V7.71065H15.2852C15.5504 7.71065 15.8047 7.60529 15.9923 7.41775C16.1798 7.23022 16.2852 6.97586 16.2852 6.71065C16.2852 6.44543 16.1798 6.19108 15.9923 6.00354C15.8047 5.816 15.5504 5.71065 15.2852 5.71065H14.1952C13.9516 4.32006 13.2254 3.05991 12.1444 2.15185C11.0635 1.24378 9.69692 0.745972 8.28516 0.745972C6.87339 0.745972 5.50685 1.24378 4.42588 2.15185C3.34491 3.05991 2.61876 4.32006 2.37516 5.71065H1.28516C1.01994 5.71065 0.765586 5.816 0.57805 6.00354C0.390513 6.19108 0.285156 6.44543 0.285156 6.71065C0.285156 6.97586 0.390513 7.23022 0.57805 7.41775C0.765586 7.60529 1.01994 7.71065 1.28516 7.71065H2.28516V18.7106H1.28516C1.01994 18.7106 0.765586 18.816 0.57805 19.0035C0.390513 19.1911 0.285156 19.4454 0.285156 19.7106C0.285156 19.9759 0.390513 20.2302 0.57805 20.4178C0.765586 20.6053 1.01994 20.7106 1.28516 20.7106H15.2852C15.5504 20.7106 15.8047 20.6053 15.9923 20.4178C16.1798 20.2302 16.2852 19.9759 16.2852 19.7106C16.2852 19.4454 16.1798 19.1911 15.9923 19.0035C15.8047 18.816 15.5504 18.7106 15.2852 18.7106ZM8.28516 2.71065C9.16971 2.71352 10.0284 3.00952 10.7268 3.55233C11.4252 4.09515 11.924 4.85417 12.1452 5.71065H4.42516C4.64629 4.85417 5.14509 4.09515 5.84352 3.55233C6.54194 3.00952 7.4006 2.71352 8.28516 2.71065ZM12.2852 18.7106H4.28516V16.7106H12.2852V18.7106ZM12.2852 14.7106H4.28516V7.71065H12.2852V14.7106Z" fill="#F2F3F2"/>
</svg>
