<svg width="201" height="241" viewBox="0 0 201 241" fill="none" xmlns="http://www.w3.org/2000/svg">
<rect x="146.184" y="160.341" width="39.3001" height="114.693" rx="4.5" transform="rotate(150 146.184 160.341)" fill="#F6BE98" stroke="black"/>
<g clip-path="url(#clip0_707_4712)">
<path d="M158.408 142.089L159.916 141.218C160.869 140.668 161.566 139.766 161.854 138.711C162.143 137.655 161.999 136.532 161.454 135.588L156.526 127.053C155.982 126.11 155.081 125.424 154.022 125.145C152.964 124.867 151.834 125.02 150.882 125.57L149.374 126.44C148.745 125.732 147.887 125.263 146.946 125.114C146.005 124.965 145.038 125.145 144.21 125.624C143.381 126.102 142.742 126.849 142.401 127.738C142.059 128.628 142.036 129.605 142.335 130.504L139.391 132.204C139.01 132.424 138.731 132.785 138.616 133.207C138.5 133.63 138.558 134.079 138.776 134.456L146.168 147.259C146.385 147.637 146.746 147.911 147.169 148.022C147.592 148.134 148.044 148.073 148.425 147.853L151.37 146.153C151.999 146.861 152.857 147.33 153.798 147.479C154.739 147.628 155.705 147.448 156.534 146.97C157.362 146.491 158.001 145.744 158.343 144.855C158.685 143.965 158.708 142.988 158.408 142.089V142.089ZM155.09 127.882L160.018 136.418C160.342 136.984 160.427 137.657 160.254 138.29C160.081 138.923 159.665 139.464 159.095 139.796L157.587 140.666C156.956 139.96 156.099 139.494 155.159 139.346C154.219 139.198 153.253 139.377 152.425 139.853L148.318 132.74C149.145 132.261 149.783 131.514 150.125 130.626C150.466 129.738 150.491 128.762 150.195 127.863L151.703 126.992C152.275 126.665 152.952 126.575 153.586 126.742C154.221 126.908 154.761 127.318 155.09 127.882V127.882ZM152.344 144.689L152.324 144.653C152.215 144.465 152.035 144.328 151.823 144.272C151.611 144.216 151.385 144.247 151.195 144.357L147.604 146.43L140.212 133.627L143.803 131.553C143.897 131.499 143.979 131.427 144.045 131.341C144.111 131.255 144.159 131.157 144.187 131.053C144.215 130.949 144.222 130.84 144.207 130.734C144.192 130.627 144.156 130.525 144.102 130.433L144.081 130.397C143.846 129.973 143.742 129.488 143.783 129.003C143.823 128.518 144.007 128.055 144.311 127.671C144.614 127.288 145.024 127.001 145.489 126.846C145.953 126.692 146.452 126.678 146.923 126.804C147.394 126.931 147.815 127.194 148.134 127.559C148.454 127.925 148.657 128.377 148.718 128.859C148.78 129.341 148.696 129.831 148.479 130.268C148.262 130.706 147.92 131.071 147.497 131.317L143.906 133.391C143.716 133.501 143.576 133.681 143.519 133.892C143.461 134.103 143.49 134.328 143.599 134.517C143.707 134.705 143.888 134.843 144.099 134.898C144.311 134.954 144.537 134.923 144.727 134.813L146.882 133.569L150.989 140.682L148.834 141.926C148.644 142.036 148.504 142.217 148.447 142.428C148.389 142.639 148.418 142.864 148.527 143.052C148.635 143.241 148.816 143.378 149.027 143.434C149.239 143.489 149.465 143.459 149.655 143.349L153.246 141.276C153.671 141.03 154.158 140.915 154.646 140.944C155.134 140.973 155.601 141.145 155.989 141.438C156.377 141.731 156.669 142.132 156.827 142.592C156.985 143.051 157.003 143.547 156.878 144.019C156.753 144.491 156.492 144.917 156.126 145.243C155.76 145.569 155.307 145.781 154.822 145.853C154.338 145.924 153.844 145.852 153.404 145.645C152.963 145.438 152.594 145.105 152.344 144.689V144.689Z" fill="black"/>
</g>
<g clip-path="url(#clip1_707_4712)">
<path d="M80.8495 166.008L79.3413 166.879C78.3889 167.429 77.6919 168.331 77.4035 169.387C77.1151 170.442 77.2591 171.565 77.8036 172.509L82.7316 181.044C83.2762 181.987 84.1768 182.674 85.2353 182.952C86.2939 183.23 87.4236 183.077 88.376 182.527L89.8842 181.657C90.5132 182.365 91.3709 182.834 92.312 182.983C93.2531 183.132 94.2197 182.952 95.0481 182.474C95.8764 181.995 96.5156 181.248 96.8572 180.359C97.1988 179.469 97.2219 178.492 96.9225 177.593L99.8672 175.893C100.248 175.673 100.527 175.312 100.642 174.89C100.758 174.467 100.7 174.018 100.482 173.641L93.0902 160.838C92.8724 160.46 92.5122 160.186 92.0888 160.075C91.6654 159.963 91.2135 160.024 90.8325 160.244L87.8879 161.944C87.2589 161.236 86.4012 160.767 85.4601 160.618C84.5189 160.469 83.5523 160.649 82.724 161.128C81.8957 161.606 81.2565 162.353 80.9149 163.242C80.5733 164.132 80.5502 165.109 80.8495 166.008V166.008ZM84.168 180.215L79.24 171.679C78.9161 171.113 78.8313 170.44 79.0041 169.807C79.1769 169.174 79.5933 168.633 80.1626 168.301L81.6709 167.431C82.3013 168.137 83.1588 168.603 84.0989 168.751C85.039 168.899 86.0045 168.72 86.8327 168.244L90.9394 175.357C90.1128 175.836 89.475 176.583 89.1333 177.471C88.7915 178.359 88.7666 179.335 89.0629 180.234L87.5546 181.105C86.9826 181.432 86.3057 181.522 85.6714 181.355C85.0371 181.189 84.4967 180.779 84.168 180.215V180.215ZM86.9134 163.408L86.934 163.444C87.0429 163.632 87.223 163.77 87.4347 163.825C87.6464 163.881 87.8724 163.85 88.0628 163.74L91.6538 161.667L99.0458 174.47L95.4548 176.544C95.3609 176.598 95.2786 176.67 95.2127 176.756C95.1468 176.842 95.0985 176.94 95.0707 177.044C95.043 177.148 95.0362 177.257 95.0509 177.363C95.0656 177.47 95.1014 177.572 95.1563 177.664L95.1768 177.7C95.4123 178.124 95.5161 178.609 95.4752 179.094C95.4344 179.579 95.2507 180.042 94.9472 180.426C94.6437 180.81 94.2339 181.096 93.7692 181.251C93.3045 181.405 92.8055 181.419 92.3348 181.293C91.8641 181.166 91.4427 180.903 91.1233 180.538C90.804 180.172 90.6009 179.72 90.5396 179.238C90.4783 178.757 90.5615 178.266 90.7787 177.829C90.9959 177.391 91.3375 177.026 91.7607 176.78L95.3517 174.706C95.5422 174.596 95.6816 174.416 95.7393 174.205C95.7969 173.994 95.7682 173.769 95.6592 173.58C95.5503 173.392 95.3702 173.254 95.1585 173.199C94.9468 173.143 94.7208 173.174 94.5304 173.284L92.3758 174.528L88.2691 167.415L90.4237 166.171C90.6142 166.061 90.7536 165.88 90.8113 165.669C90.8689 165.458 90.8402 165.233 90.7312 165.045C90.6223 164.856 90.4422 164.719 90.2305 164.663C90.0188 164.608 89.7929 164.638 89.6024 164.748L86.0114 166.821C85.5867 167.067 85.0999 167.182 84.6119 167.153C84.1239 167.124 83.6565 166.952 83.2685 166.659C82.8805 166.366 82.5892 165.965 82.431 165.506C82.2729 165.046 82.255 164.55 82.3797 164.078C82.5043 163.606 82.766 163.181 83.1317 162.854C83.4974 162.528 83.9509 162.316 84.4353 162.244C84.9197 162.173 85.4133 162.245 85.8542 162.452C86.2951 162.659 86.6636 162.992 86.9134 163.408V163.408Z" fill="black"/>
</g>
<g clip-path="url(#clip2_707_4712)">
<path d="M139.283 108.542L140.791 107.671C141.744 107.122 142.441 106.22 142.729 105.164C143.018 104.108 142.874 102.985 142.329 102.042L137.401 93.5062C136.857 92.5629 135.956 91.8768 134.897 91.5986C133.839 91.3205 132.709 91.4731 131.757 92.023L130.249 92.8937C129.62 92.1849 128.762 91.7164 127.821 91.5675C126.88 91.4186 125.913 91.5985 125.085 92.0768C124.256 92.555 123.617 93.3022 123.276 94.1916C122.934 95.0811 122.911 96.0582 123.21 96.9573L120.266 98.6574C119.885 98.8774 119.606 99.2382 119.491 99.6605C119.375 100.083 119.433 100.532 119.651 100.909L127.043 113.713C127.26 114.09 127.621 114.364 128.044 114.476C128.467 114.587 128.919 114.526 129.3 114.306L132.245 112.606C132.874 113.315 133.732 113.783 134.673 113.932C135.614 114.081 136.58 113.901 137.409 113.423C138.237 112.945 138.876 112.197 139.218 111.308C139.56 110.418 139.583 109.441 139.283 108.542V108.542ZM135.965 94.3355L140.893 102.871C141.217 103.438 141.302 104.11 141.129 104.743C140.956 105.376 140.54 105.917 139.97 106.249L138.462 107.12C137.831 106.414 136.974 105.947 136.034 105.799C135.094 105.651 134.128 105.83 133.3 106.306L129.193 99.1933C130.02 98.7141 130.658 97.9676 131 97.0793C131.341 96.1911 131.366 95.2154 131.07 94.3163L132.578 93.4455C133.15 93.1184 133.827 93.0283 134.461 93.195C135.096 93.3617 135.636 93.7716 135.965 94.3355V94.3355ZM133.219 111.142L133.199 111.107C133.09 110.918 132.91 110.781 132.698 110.725C132.486 110.67 132.26 110.7 132.07 110.81L128.479 112.883L121.087 100.08L124.678 98.0067C124.772 97.9525 124.854 97.8804 124.92 97.7945C124.986 97.7086 125.034 97.6107 125.062 97.5065C125.09 97.4022 125.097 97.2937 125.082 97.1872C125.067 97.0806 125.031 96.9783 124.977 96.886L124.956 96.8504C124.721 96.4262 124.617 95.9413 124.658 95.4564C124.698 94.9714 124.882 94.5081 125.186 94.1244C125.489 93.7408 125.899 93.4538 126.364 93.2996C126.828 93.1455 127.327 93.1308 127.798 93.2576C128.269 93.3844 128.69 93.647 129.009 94.0124C129.329 94.3779 129.532 94.8299 129.593 95.3118C129.655 95.7938 129.571 96.2842 129.354 96.7216C129.137 97.159 128.795 97.524 128.372 97.7707L124.781 99.844C124.591 99.9539 124.451 100.134 124.394 100.346C124.336 100.557 124.365 100.781 124.474 100.97C124.582 101.159 124.763 101.296 124.974 101.351C125.186 101.407 125.412 101.377 125.602 101.267L127.757 100.023L131.864 107.136L129.709 108.38C129.519 108.489 129.379 108.67 129.322 108.881C129.264 109.092 129.293 109.317 129.402 109.505C129.51 109.694 129.691 109.831 129.902 109.887C130.114 109.943 130.34 109.912 130.53 109.802L134.121 107.729C134.546 107.484 135.033 107.368 135.521 107.397C136.009 107.426 136.476 107.598 136.864 107.891C137.252 108.184 137.544 108.585 137.702 109.045C137.86 109.504 137.878 110.001 137.753 110.472C137.628 110.944 137.367 111.37 137.001 111.696C136.635 112.022 136.182 112.234 135.697 112.306C135.213 112.378 134.719 112.305 134.279 112.098C133.838 111.891 133.469 111.559 133.219 111.142V111.142Z" fill="black"/>
</g>
<g clip-path="url(#clip3_707_4712)">
<path d="M61.7167 132.463L60.2085 133.334C59.2561 133.884 58.5591 134.786 58.2707 135.842C57.9823 136.897 58.1263 138.02 58.6708 138.964L63.5988 147.499C64.1434 148.442 65.044 149.128 66.1025 149.407C67.161 149.685 68.2908 149.532 69.2432 148.982L70.7514 148.112C71.3804 148.82 72.2381 149.289 73.1792 149.438C74.1203 149.587 75.0869 149.407 75.9153 148.928C76.7436 148.45 77.3827 147.703 77.7244 146.814C78.066 145.924 78.0891 144.947 77.7897 144.048L80.7344 142.348C81.1153 142.128 81.3941 141.767 81.5095 141.345C81.6248 140.922 81.5673 140.473 81.3494 140.096L73.9574 127.293C73.7396 126.915 73.3794 126.641 72.956 126.53C72.5325 126.418 72.0807 126.479 71.6997 126.699L68.7551 128.399C68.1261 127.691 67.2684 127.222 66.3272 127.073C65.3861 126.924 64.4195 127.104 63.5912 127.583C62.7628 128.061 62.1237 128.808 61.7821 129.697C61.4405 130.587 61.4174 131.564 61.7167 132.463V132.463ZM65.0352 146.67L60.1072 138.134C59.7833 137.568 59.6984 136.895 59.8712 136.262C60.0441 135.629 60.4605 135.088 61.0298 134.756L62.5381 133.886C63.1685 134.592 64.026 135.058 64.9661 135.206C65.9062 135.354 66.8716 135.175 67.6999 134.699L71.8066 141.812C70.98 142.291 70.3422 143.038 70.0005 143.926C69.6587 144.814 69.6338 145.79 69.93 146.689L68.4218 147.56C67.8498 147.887 67.1729 147.977 66.5386 147.81C65.9043 147.644 65.3639 147.234 65.0352 146.67V146.67ZM67.7806 129.863L67.8012 129.899C67.9101 130.087 68.0902 130.224 68.3019 130.28C68.5136 130.336 68.7396 130.305 68.93 130.195L72.521 128.122L79.913 140.925L76.322 142.999C76.2281 143.053 76.1458 143.125 76.0799 143.211C76.0139 143.297 75.9657 143.395 75.9379 143.499C75.9101 143.603 75.9034 143.712 75.9181 143.818C75.9328 143.925 75.9686 144.027 76.0235 144.119L76.044 144.155C76.2795 144.579 76.3833 145.064 76.3424 145.549C76.3016 146.034 76.1179 146.497 75.8144 146.881C75.5109 147.264 75.1011 147.551 74.6364 147.706C74.1716 147.86 73.6727 147.874 73.202 147.748C72.7313 147.621 72.3099 147.358 71.9905 146.993C71.6712 146.627 71.4681 146.175 71.4068 145.693C71.3455 145.211 71.4287 144.721 71.6459 144.284C71.8631 143.846 72.2047 143.481 72.6279 143.235L76.2189 141.161C76.4094 141.051 76.5488 140.871 76.6065 140.66C76.6641 140.449 76.6353 140.224 76.5264 140.035C76.4175 139.847 76.2374 139.709 76.0257 139.654C75.814 139.598 75.588 139.629 75.3976 139.739L73.243 140.983L69.1363 133.87L71.2909 132.626C71.4814 132.516 71.6208 132.335 71.6785 132.124C71.7361 131.913 71.7073 131.688 71.5984 131.5C71.4895 131.311 71.3094 131.174 71.0977 131.118C70.886 131.063 70.66 131.093 70.4696 131.203L66.8786 133.276C66.4539 133.522 65.9671 133.637 65.4791 133.608C64.9911 133.579 64.5237 133.407 64.1357 133.114C63.7477 132.821 63.4564 132.42 63.2982 131.961C63.1401 131.501 63.1222 131.005 63.2469 130.533C63.3715 130.061 63.6331 129.635 63.9989 129.309C64.3646 128.983 64.8181 128.771 65.3025 128.699C65.7869 128.628 66.2805 128.7 66.7214 128.907C67.1623 129.114 67.5308 129.447 67.7806 129.863V129.863Z" fill="black"/>
</g>
<g clip-path="url(#clip4_707_4712)">
<path d="M120.15 74.9973L121.659 74.1265C122.611 73.5766 123.308 72.6746 123.596 71.6188C123.885 70.563 123.741 69.44 123.196 68.4968L118.268 59.9612C117.724 59.018 116.823 58.3318 115.765 58.0537C114.706 57.7755 113.576 57.9282 112.624 58.478L111.116 59.3488C110.487 58.64 109.629 58.1715 108.688 58.0226C107.747 57.8737 106.78 58.0536 105.952 58.5319C105.124 59.0101 104.484 59.7573 104.143 60.6467C103.801 61.5362 103.778 62.5133 104.077 63.4124L101.133 65.1125C100.752 65.3324 100.473 65.6932 100.358 66.1156C100.242 66.5379 100.3 66.9871 100.518 67.3644L107.91 80.1677C108.128 80.545 108.488 80.8194 108.911 80.9307C109.335 81.042 109.787 80.9809 110.167 80.761L113.112 79.0609C113.741 79.7697 114.599 80.2382 115.54 80.3871C116.481 80.536 117.448 80.3561 118.276 79.8778C119.104 79.3996 119.743 78.6524 120.085 77.763C120.427 76.8735 120.45 75.8964 120.15 74.9973V74.9973ZM116.832 60.7906L121.76 69.3261C122.084 69.8927 122.169 70.5656 121.996 71.1982C121.823 71.8309 121.407 72.3721 120.837 72.7039L119.329 73.5747C118.699 72.8686 117.841 72.4023 116.901 72.2542C115.961 72.106 114.996 72.2851 114.167 72.7613L110.061 65.6484C110.887 65.1692 111.525 64.4227 111.867 63.5344C112.209 62.6462 112.233 61.6704 111.937 60.7714L113.445 59.9006C114.017 59.5735 114.694 59.4834 115.329 59.6501C115.963 59.8168 116.503 60.2267 116.832 60.7906V60.7906ZM114.087 77.5973L114.066 77.5617C113.957 77.3731 113.777 77.2359 113.565 77.1802C113.354 77.1246 113.128 77.1551 112.937 77.2651L109.346 79.3384L101.954 66.5351L105.545 64.4618C105.639 64.4076 105.721 64.3355 105.787 64.2496C105.853 64.1637 105.902 64.0658 105.929 63.9616C105.957 63.8573 105.964 63.7488 105.949 63.6422C105.934 63.5357 105.899 63.4333 105.844 63.341L105.823 63.3055C105.588 62.8813 105.484 62.3964 105.525 61.9114C105.566 61.4265 105.749 60.9632 106.053 60.5795C106.356 60.1958 106.766 59.9089 107.231 59.7547C107.696 59.6005 108.195 59.5859 108.665 59.7127C109.136 59.8395 109.557 60.1021 109.877 60.4675C110.196 60.833 110.399 61.285 110.46 61.7669C110.522 62.2489 110.439 62.7393 110.221 63.1767C110.004 63.6141 109.662 63.9791 109.239 64.2258L105.648 66.2991C105.458 66.409 105.318 66.5894 105.261 66.8006C105.203 67.0117 105.232 67.2364 105.341 67.425C105.45 67.6136 105.63 67.7509 105.842 67.8065C106.053 67.8621 106.279 67.8316 106.47 67.7216L108.624 66.4777L112.731 73.5906L110.576 74.8346C110.386 74.9446 110.246 75.125 110.189 75.3361C110.131 75.5473 110.16 75.7719 110.269 75.9605C110.378 76.1492 110.558 76.2864 110.769 76.342C110.981 76.3977 111.207 76.3671 111.398 76.2572L114.989 74.1839C115.413 73.9388 115.9 73.8235 116.388 73.8523C116.876 73.8812 117.343 74.0529 117.731 74.346C118.119 74.6392 118.411 75.0406 118.569 75.4998C118.727 75.9591 118.745 76.4558 118.62 76.9275C118.496 77.3992 118.234 77.8249 117.868 78.1511C117.503 78.4773 117.049 78.6896 116.565 78.7611C116.08 78.8327 115.587 78.7604 115.146 78.5533C114.705 78.3463 114.336 78.0137 114.087 77.5973V77.5973Z" fill="black"/>
</g>
<g clip-path="url(#clip5_707_4712)">
<path d="M42.5917 98.9154L41.0835 99.7862C40.1311 100.336 39.4341 101.238 39.1457 102.294C38.8573 103.35 39.0013 104.473 39.5458 105.416L44.4738 113.951C45.0184 114.895 45.919 115.581 46.9775 115.859C48.036 116.137 49.1658 115.985 50.1182 115.435L51.6264 114.564C52.2554 115.273 53.1131 115.741 54.0542 115.89C54.9953 116.039 55.9619 115.859 56.7903 115.381C57.6186 114.903 58.2577 114.155 58.5994 113.266C58.941 112.377 58.9641 111.399 58.6647 110.5L61.6094 108.8C61.9903 108.58 62.2691 108.219 62.3845 107.797C62.4998 107.375 62.4423 106.926 62.2244 106.548L54.8324 93.745C54.6146 93.3677 54.2544 93.0933 53.831 92.982C53.4075 92.8708 52.9557 92.9318 52.5747 93.1518L49.6301 94.8518C49.0011 94.143 48.1434 93.6745 47.2022 93.5256C46.2611 93.3767 45.2945 93.5567 44.4662 94.0349C43.6378 94.5131 42.9987 95.2603 42.6571 96.1498C42.3155 97.0392 42.2924 98.0163 42.5917 98.9154V98.9154ZM45.9102 113.122L40.9822 104.587C40.6583 104.02 40.5734 103.347 40.7462 102.714C40.9191 102.082 41.3355 101.541 41.9048 101.209L43.4131 100.338C44.0435 101.044 44.901 101.51 45.8411 101.659C46.7812 101.807 47.7466 101.628 48.5749 101.151L52.6816 108.264C51.855 108.744 51.2172 109.49 50.8755 110.378C50.5337 111.267 50.5088 112.242 50.805 113.141L49.2968 114.012C48.7248 114.339 48.0479 114.429 47.4136 114.263C46.7793 114.096 46.2389 113.686 45.9102 113.122V113.122ZM48.6556 96.3154L48.6762 96.351C48.7851 96.5396 48.9652 96.6769 49.1769 96.7325C49.3886 96.7881 49.6146 96.7576 49.805 96.6476L53.396 94.5743L60.788 107.378L57.197 109.451C57.1031 109.505 57.0208 109.577 56.9549 109.663C56.8889 109.749 56.8407 109.847 56.8129 109.951C56.7851 110.055 56.7784 110.164 56.7931 110.27C56.8078 110.377 56.8436 110.479 56.8985 110.572L56.919 110.607C57.1545 111.031 57.2583 111.516 57.2174 112.001C57.1766 112.486 56.9929 112.95 56.6894 113.333C56.3859 113.717 55.9761 114.004 55.5114 114.158C55.0466 114.312 54.5477 114.327 54.077 114.2C53.6063 114.073 53.1849 113.811 52.8655 113.445C52.5462 113.08 52.3431 112.628 52.2818 112.146C52.2205 111.664 52.3037 111.173 52.5209 110.736C52.7381 110.299 53.0797 109.934 53.5029 109.687L57.0939 107.614C57.2844 107.504 57.4238 107.323 57.4815 107.112C57.5391 106.901 57.5103 106.676 57.4014 106.488C57.2925 106.299 57.1124 106.162 56.9007 106.106C56.689 106.051 56.463 106.081 56.2726 106.191L54.118 107.435L50.0113 100.322L52.1659 99.0781C52.3564 98.9682 52.4958 98.7878 52.5535 98.5766C52.6111 98.3654 52.5823 98.1408 52.4734 97.9522C52.3645 97.7635 52.1844 97.6263 51.9727 97.5707C51.761 97.515 51.535 97.5456 51.3446 97.6555L47.7536 99.7288C47.3289 99.9739 46.8421 100.089 46.3541 100.06C45.8661 100.032 45.3987 99.8598 45.0107 99.5667C44.6227 99.2736 44.3314 98.8722 44.1732 98.4129C44.0151 97.9536 43.9972 97.4569 44.1219 96.9852C44.2465 96.5135 44.5081 96.0879 44.8739 95.7616C45.2396 95.4354 45.6931 95.2232 46.1775 95.1516C46.6619 95.08 47.1555 95.1523 47.5964 95.3594C48.0373 95.5664 48.4058 95.899 48.6556 96.3154V96.3154Z" fill="black"/>
</g>
<path d="M88.1722 129.319V125.143L101.516 112.471C102.636 111.415 103.468 110.487 104.012 109.687C104.556 108.887 104.908 108.151 105.068 107.479C105.26 106.775 105.356 106.119 105.356 105.511C105.356 103.975 104.828 102.791 103.772 101.959C102.716 101.095 101.164 100.663 99.1162 100.663C97.4842 100.663 95.9962 100.951 94.6522 101.527C93.3402 102.103 92.2042 102.983 91.2442 104.167L86.8762 100.807C88.1882 99.0468 89.9482 97.6868 92.1562 96.7268C94.3962 95.7348 96.8922 95.2388 99.6442 95.2388C102.076 95.2388 104.188 95.6388 105.98 96.4388C107.804 97.2068 109.196 98.3108 110.156 99.7508C111.148 101.191 111.644 102.903 111.644 104.887C111.644 105.975 111.5 107.063 111.212 108.151C110.924 109.207 110.38 110.327 109.58 111.511C108.78 112.695 107.612 114.023 106.076 115.495L94.6042 126.391L93.3082 124.039H112.94V129.319H88.1722Z" fill="black"/>
<defs>
<clipPath id="clip0_707_4712">
<rect width="26.2826" height="26.5378" fill="white" transform="translate(155.293 118.281) rotate(60)"/>
</clipPath>
<clipPath id="clip1_707_4712">
<rect width="26.2826" height="26.5378" fill="white" transform="translate(83.9648 189.816) rotate(-120)"/>
</clipPath>
<clipPath id="clip2_707_4712">
<rect width="26.2826" height="26.5378" fill="white" transform="translate(136.168 84.7346) rotate(60)"/>
</clipPath>
<clipPath id="clip3_707_4712">
<rect width="26.2826" height="26.5378" fill="white" transform="translate(64.832 156.271) rotate(-120)"/>
</clipPath>
<clipPath id="clip4_707_4712">
<rect width="26.2826" height="26.5378" fill="white" transform="translate(117.035 51.1897) rotate(60)"/>
</clipPath>
<clipPath id="clip5_707_4712">
<rect width="26.2826" height="26.5378" fill="white" transform="translate(45.707 122.723) rotate(-120)"/>
</clipPath>
</defs>
</svg>
